<mxfile host="app.diagrams.net" modified="2024-05-20T11:39:29.655Z" agent="Mozilla/5.0 (Windows NT 10.0; Win64; x64) AppleWebKit/537.36 (KHTML, like Gecko) Chrome/125.0.0.0 Safari/537.36" etag="4LZFIM2Yf806vdWjG2FH" version="24.4.4" type="github">
  <diagram name="Seite-1" id="6TWZkrGFnJNyo3eU7zf7">
    <mxGraphModel dx="1221" dy="618" grid="1" gridSize="10" guides="1" tooltips="1" connect="1" arrows="1" fold="1" page="1" pageScale="1" pageWidth="840" pageHeight="1000" math="0" shadow="0">
      <root>
        <mxCell id="0" />
        <mxCell id="1" parent="0" />
        <mxCell id="zQ9of0heOYMWUSIYJV7x-1" value="Individuelle Schicht anlegen" style="shape=umlFrame;whiteSpace=wrap;html=1;pointerEvents=0;width=160;height=30;align=left;" parent="1" vertex="1">
          <mxGeometry x="30" y="80" width="370" height="630" as="geometry" />
        </mxCell>
        <mxCell id="zQ9of0heOYMWUSIYJV7x-9" style="edgeStyle=orthogonalEdgeStyle;rounded=0;orthogonalLoop=1;jettySize=auto;html=1;entryX=0.5;entryY=0;entryDx=0;entryDy=0;endArrow=open;endFill=0;" parent="1" source="zQ9of0heOYMWUSIYJV7x-2" target="zQ9of0heOYMWUSIYJV7x-4" edge="1">
          <mxGeometry relative="1" as="geometry" />
        </mxCell>
        <mxCell id="zQ9of0heOYMWUSIYJV7x-2" value="" style="ellipse;fillColor=strokeColor;html=1;" parent="1" vertex="1">
          <mxGeometry x="270" y="120" width="20" height="20" as="geometry" />
        </mxCell>
        <mxCell id="zQ9of0heOYMWUSIYJV7x-10" style="edgeStyle=orthogonalEdgeStyle;rounded=0;orthogonalLoop=1;jettySize=auto;html=1;entryX=0.5;entryY=0;entryDx=0;entryDy=0;strokeColor=default;align=center;verticalAlign=middle;fontFamily=Helvetica;fontSize=11;fontColor=default;labelBackgroundColor=default;endArrow=open;endFill=0;" parent="1" source="zQ9of0heOYMWUSIYJV7x-30" target="zQ9of0heOYMWUSIYJV7x-5" edge="1">
          <mxGeometry relative="1" as="geometry" />
        </mxCell>
        <mxCell id="zQ9of0heOYMWUSIYJV7x-4" value="Bezeichnung eingeben" style="rounded=1;whiteSpace=wrap;html=1;" parent="1" vertex="1">
          <mxGeometry x="220" y="170" width="120" height="50" as="geometry" />
        </mxCell>
        <mxCell id="zQ9of0heOYMWUSIYJV7x-11" style="edgeStyle=orthogonalEdgeStyle;rounded=0;orthogonalLoop=1;jettySize=auto;html=1;entryX=0.5;entryY=0;entryDx=0;entryDy=0;strokeColor=default;align=center;verticalAlign=middle;fontFamily=Helvetica;fontSize=11;fontColor=default;labelBackgroundColor=default;endArrow=open;endFill=0;" parent="1" source="zQ9of0heOYMWUSIYJV7x-5" target="zQ9of0heOYMWUSIYJV7x-6" edge="1">
          <mxGeometry relative="1" as="geometry" />
        </mxCell>
        <mxCell id="zQ9of0heOYMWUSIYJV7x-5" value="Startzeit eingeben" style="rounded=1;whiteSpace=wrap;html=1;" parent="1" vertex="1">
          <mxGeometry x="220" y="320" width="120" height="40" as="geometry" />
        </mxCell>
        <mxCell id="zQ9of0heOYMWUSIYJV7x-12" style="edgeStyle=orthogonalEdgeStyle;rounded=0;orthogonalLoop=1;jettySize=auto;html=1;entryX=0.5;entryY=0;entryDx=0;entryDy=0;strokeColor=default;align=center;verticalAlign=middle;fontFamily=Helvetica;fontSize=11;fontColor=default;labelBackgroundColor=default;endArrow=open;endFill=0;" parent="1" source="zQ9of0heOYMWUSIYJV7x-6" target="zQ9of0heOYMWUSIYJV7x-7" edge="1">
          <mxGeometry relative="1" as="geometry" />
        </mxCell>
        <mxCell id="zQ9of0heOYMWUSIYJV7x-6" value="Endzeit eingeben" style="rounded=1;whiteSpace=wrap;html=1;" parent="1" vertex="1">
          <mxGeometry x="220" y="390" width="120" height="40" as="geometry" />
        </mxCell>
        <mxCell id="zQ9of0heOYMWUSIYJV7x-15" style="edgeStyle=orthogonalEdgeStyle;rounded=0;orthogonalLoop=1;jettySize=auto;html=1;entryX=1;entryY=0.5;entryDx=0;entryDy=0;strokeColor=default;align=center;verticalAlign=middle;fontFamily=Helvetica;fontSize=11;fontColor=default;labelBackgroundColor=default;endArrow=open;endFill=0;" parent="1" source="zQ9of0heOYMWUSIYJV7x-7" target="TLdJzsIBcSx2Pyifegls-1" edge="1">
          <mxGeometry relative="1" as="geometry">
            <mxPoint x="280" y="605" as="targetPoint" />
            <Array as="points">
              <mxPoint x="280" y="595" />
            </Array>
          </mxGeometry>
        </mxCell>
        <mxCell id="zQ9of0heOYMWUSIYJV7x-16" style="edgeStyle=orthogonalEdgeStyle;rounded=0;orthogonalLoop=1;jettySize=auto;html=1;entryX=1;entryY=0.5;entryDx=0;entryDy=0;strokeColor=default;align=center;verticalAlign=middle;fontFamily=Helvetica;fontSize=11;fontColor=default;labelBackgroundColor=default;endArrow=open;endFill=0;" parent="1" source="zQ9of0heOYMWUSIYJV7x-7" target="zQ9of0heOYMWUSIYJV7x-14" edge="1">
          <mxGeometry relative="1" as="geometry" />
        </mxCell>
        <mxCell id="zQ9of0heOYMWUSIYJV7x-7" value="" style="rhombus;whiteSpace=wrap;html=1;" parent="1" vertex="1">
          <mxGeometry x="255" y="482" width="50" height="50" as="geometry" />
        </mxCell>
        <mxCell id="zQ9of0heOYMWUSIYJV7x-8" value="" style="ellipse;html=1;shape=endState;fillColor=strokeColor;" parent="1" vertex="1">
          <mxGeometry x="185" y="660" width="30" height="30" as="geometry" />
        </mxCell>
        <mxCell id="zQ9of0heOYMWUSIYJV7x-14" value="Beschreibung eingeben" style="rounded=1;whiteSpace=wrap;html=1;" parent="1" vertex="1">
          <mxGeometry x="60" y="480" width="120" height="53" as="geometry" />
        </mxCell>
        <mxCell id="zQ9of0heOYMWUSIYJV7x-26" style="edgeStyle=orthogonalEdgeStyle;rounded=0;orthogonalLoop=1;jettySize=auto;html=1;entryX=0.5;entryY=0;entryDx=0;entryDy=0;strokeColor=default;align=center;verticalAlign=middle;fontFamily=Helvetica;fontSize=11;fontColor=default;labelBackgroundColor=default;endArrow=open;endFill=0;exitX=0.5;exitY=1;exitDx=0;exitDy=0;" parent="1" source="TLdJzsIBcSx2Pyifegls-1" target="zQ9of0heOYMWUSIYJV7x-8" edge="1">
          <mxGeometry relative="1" as="geometry">
            <mxPoint x="200" y="610" as="sourcePoint" />
          </mxGeometry>
        </mxCell>
        <mxCell id="zQ9of0heOYMWUSIYJV7x-23" style="edgeStyle=orthogonalEdgeStyle;rounded=0;orthogonalLoop=1;jettySize=auto;html=1;entryX=0;entryY=0.5;entryDx=0;entryDy=0;strokeColor=default;align=center;verticalAlign=middle;fontFamily=Helvetica;fontSize=11;fontColor=default;labelBackgroundColor=default;endArrow=open;endFill=0;" parent="1" source="zQ9of0heOYMWUSIYJV7x-14" target="TLdJzsIBcSx2Pyifegls-1" edge="1">
          <mxGeometry relative="1" as="geometry">
            <mxPoint x="120" y="605" as="targetPoint" />
          </mxGeometry>
        </mxCell>
        <mxCell id="zQ9of0heOYMWUSIYJV7x-27" value="Beschreibung?" style="text;html=1;align=center;verticalAlign=middle;resizable=0;points=[];autosize=1;strokeColor=none;fillColor=none;fontFamily=Helvetica;fontSize=11;fontColor=default;labelBackgroundColor=default;" parent="1" vertex="1">
          <mxGeometry x="290" y="480" width="100" height="30" as="geometry" />
        </mxCell>
        <mxCell id="zQ9of0heOYMWUSIYJV7x-28" value="[ja]" style="text;html=1;align=center;verticalAlign=middle;resizable=0;points=[];autosize=1;strokeColor=none;fillColor=none;fontFamily=Helvetica;fontSize=11;fontColor=default;labelBackgroundColor=default;" parent="1" vertex="1">
          <mxGeometry x="200" y="480" width="40" height="30" as="geometry" />
        </mxCell>
        <mxCell id="zQ9of0heOYMWUSIYJV7x-29" value="[nein]" style="text;html=1;align=center;verticalAlign=middle;resizable=0;points=[];autosize=1;strokeColor=none;fillColor=none;fontFamily=Helvetica;fontSize=11;fontColor=default;labelBackgroundColor=default;" parent="1" vertex="1">
          <mxGeometry x="274" y="547" width="50" height="30" as="geometry" />
        </mxCell>
        <mxCell id="zQ9of0heOYMWUSIYJV7x-31" value="" style="edgeStyle=orthogonalEdgeStyle;rounded=0;orthogonalLoop=1;jettySize=auto;html=1;entryX=0.5;entryY=0;entryDx=0;entryDy=0;strokeColor=default;align=center;verticalAlign=middle;fontFamily=Helvetica;fontSize=11;fontColor=default;labelBackgroundColor=default;endArrow=open;endFill=0;" parent="1" source="zQ9of0heOYMWUSIYJV7x-4" target="zQ9of0heOYMWUSIYJV7x-30" edge="1">
          <mxGeometry relative="1" as="geometry">
            <mxPoint x="280" y="193" as="sourcePoint" />
            <mxPoint x="280" y="290" as="targetPoint" />
          </mxGeometry>
        </mxCell>
        <mxCell id="zQ9of0heOYMWUSIYJV7x-30" value="Symbol auswÃ¤hlen" style="rounded=1;whiteSpace=wrap;html=1;" parent="1" vertex="1">
          <mxGeometry x="220" y="250" width="120" height="40" as="geometry" />
        </mxCell>
        <mxCell id="TLdJzsIBcSx2Pyifegls-1" value="" style="rhombus;whiteSpace=wrap;html=1;" vertex="1" parent="1">
          <mxGeometry x="175" y="570" width="50" height="50" as="geometry" />
        </mxCell>
      </root>
    </mxGraphModel>
  </diagram>
</mxfile>
